<mxfile host="app.diagrams.net" modified="2024-03-06T14:11:44.771Z" agent="Mozilla/5.0 (Windows NT 10.0; Win64; x64) AppleWebKit/537.36 (KHTML, like Gecko) Chrome/120.0.0.0 Safari/537.36" version="24.0.1" etag="aYpKhF1fyH8T41CDW0HL" type="github">
  <diagram name="第 1 页" id="USrFYipgYp_KT1rdQ8zf">
    <mxGraphModel>
      <root>
        <mxCell id="0" />
        <mxCell id="1" parent="0" />
      </root>
    </mxGraphModel>
  </diagram>
</mxfile>
